<svg width="10" height="10" viewBox="0 0 10 10" fill="none" xmlns="http://www.w3.org/2000/svg">
<g clip-path="url(#clip0)">
<path d="M9.86215 2.52161C9.79278 2.43982 9.69341 2.39307 9.58927 2.39307H7.65774V3.41871C7.65774 3.88999 7.25359 4.27341 6.75684 4.27341C6.26008 4.27341 5.85593 3.88999 5.85593 3.41871V2.39307H4.05413V3.41871C4.05413 3.88999 3.64999 4.27341 3.15323 4.27341C2.65648 4.27341 2.25233 3.88999 2.25233 3.41871V2.39307H0.32089C0.216656 2.39307 0.117286 2.43982 0.0479169 2.52161C-0.0215425 2.60341 -0.0544254 2.71247 -0.0425335 2.82136L0.605665 8.78452C0.617737 9.45683 1.14179 9.9999 1.78431 9.9999H8.12584C8.76828 9.9999 9.29233 9.45683 9.30449 8.78443L9.95269 2.82127C9.96449 2.71247 9.93161 2.60341 9.86215 2.52161Z" fill="#FFC600"/>
<path d="M3.15333 3.76068C3.35207 3.76068 3.51369 3.60735 3.51369 3.4188V1.53846C3.51369 1.01051 4.07486 0.683761 4.59477 0.683761H5.49567C6.04288 0.683761 6.39657 1.01923 6.39657 1.53846V3.4188C6.39657 3.60735 6.55829 3.76068 6.75693 3.76068C6.95558 3.76068 7.11729 3.60735 7.11729 3.4188V1.53846C7.11729 0.647009 6.43531 0 5.49567 0H4.59477C3.60126 0 2.79297 0.690171 2.79297 1.53846V3.4188C2.79297 3.60735 2.95459 3.76068 3.15333 3.76068Z" fill="#FFC600"/>
</g>
<defs>
<clipPath id="clip0">
<rect width="10" height="10" fill="white"/>
</clipPath>
</defs>
</svg>
