<svg width="10" height="10" viewBox="0 0 10 10" fill="none" xmlns="http://www.w3.org/2000/svg"><g clip-path="url(#clip0)" fill="#231F20"><path d="M9.862 2.522a.358.358 0 00-.273-.129H7.658V3.42c0 .471-.404.855-.901.855s-.901-.384-.901-.855V2.393H4.054V3.42c0 .471-.404.855-.9.855-.498 0-.902-.384-.902-.855V2.393H.321a.358.358 0 00-.273.129.397.397 0 00-.09.3l.648 5.963C.618 9.457 1.142 10 1.784 10h6.342c.642 0 1.166-.543 1.178-1.215l.649-5.964a.398.398 0 00-.09-.3z"/><path d="M3.153 3.76c.2 0 .36-.153.36-.341v-1.88c0-.528.562-.855 1.082-.855h.9c.548 0 .902.335.902.854v1.88c0 .19.161.343.36.343.199 0 .36-.154.36-.342v-1.88C7.117.646 6.435 0 5.496 0h-.901C3.6 0 2.793.69 2.793 1.538v1.88c0 .19.162.343.36.343z"/></g><defs><clipPath id="clip0"><path fill="#fff" d="M0 0h10v10H0z"/></clipPath></defs></svg>