<svg xmlns="http://www.w3.org/2000/svg" xmlns:xlink="http://www.w3.org/1999/xlink"><symbol id="icon-instagram" viewBox="0 0 32 32"><path d="M21 16a5 5 0 11-10 0c0-.285.03-.563.082-.833H9.333v6.661c0 .464.375.839.839.839H21.83a.838.838 0 00.837-.839v-6.661h-1.749c.052.27.082.548.082.833zm-5 3.333a3.334 3.334 0 10-.001-6.667A3.334 3.334 0 0016 19.333zm4-6.833h1.998a.502.502 0 00.502-.5v-1.998a.502.502 0 00-.502-.502H20a.501.501 0 00-.502.502V12c.002.275.227.5.502.5zM16 0a16 16 0 100 32 16 16 0 000-32zm8.333 22.482a1.857 1.857 0 01-1.851 1.851H9.518a1.857 1.857 0 01-1.851-1.851V9.518c0-1.018.833-1.851 1.851-1.851h12.964c1.018 0 1.851.833 1.851 1.851v12.964z" fill="#fff"/></symbol><symbol id="icon-twitter" viewBox="0 0 32 32"><path d="M16 32c-2.167 0-4.24-.422-6.219-1.266-1.979-.843-3.682-1.979-5.11-3.406-1.426-1.427-2.562-3.13-3.405-5.11A15.697 15.697 0 010 16c0-2.167.422-4.24 1.266-6.219.843-1.979 1.979-3.682 3.406-5.11 1.427-1.426 3.13-2.562 5.11-3.405A15.696 15.696 0 0116 0c2.167 0 4.24.422 6.219 1.266 1.979.843 3.682 1.979 5.11 3.406 1.426 1.427 2.562 3.13 3.405 5.11A15.697 15.697 0 0132 16c0 2.167-.422 4.24-1.266 6.219-.843 1.979-1.979 3.682-3.406 5.11-1.427 1.426-3.13 2.562-5.11 3.405A15.698 15.698 0 0116 32zm9.406-24a5.912 5.912 0 00-.562.344l-.61.406-.578.313L23 9.28C22.23 8.427 21.281 8 20.156 8 17.72 8 16.5 9.02 16.5 11.063v1.843c-3.354-.166-5.927-1.396-7.719-3.687C8.261 9.76 8 10.354 8 11c0 1.375.51 2.417 1.531 3.125-.125 0-.302.01-.531.031-.23.021-.411.021-.547 0A1.566 1.566 0 018 14c0 .958.255 1.755.766 2.39.51.636 1.213 1.047 2.109 1.235-.208.25-.5.375-.875.375-.333 0-.625-.094-.875-.281 0 .812.39 1.442 1.172 1.89.781.448 1.661.683 2.64.703-.374.563-.921.985-1.64 1.266A6.246 6.246 0 019 22c-.292 0-.693-.073-1.203-.219A16.21 16.21 0 007 21.563c.333.666 1.016 1.24 2.047 1.718 1.031.48 2.338.719 3.922.719 1.396 0 2.698-.245 3.906-.734 1.208-.49 2.24-1.141 3.094-1.953a12.776 12.776 0 002.203-2.782 13.08 13.08 0 001.375-3.234C23.849 14.182 24 13.083 24 12c0-.042.125-.13.375-.266.25-.135.542-.317.875-.546.333-.23.583-.47.75-.72-1.125 0-1.875.022-2.25.063.73-.437 1.281-1.281 1.656-2.531z" fill="#fff"/></symbol><symbol id="icons-facebook" viewBox="0 0 32 32"><path d="M31.997 16c0-8.837-7.162-16-15.998-16C7.163 0 0 7.163 0 16c0 7.984 5.85 14.603 13.499 15.803V20.624H9.437v-4.625H13.5v-3.524c0-4.011 2.389-6.226 6.042-6.226 1.751 0 3.582.312 3.582.312V10.5h-2.016c-1.987 0-2.607 1.233-2.607 2.498V16h4.437l-.709 4.625H18.5v11.179c7.648-1.2 13.499-7.819 13.499-15.804h-.002z" fill="#fff"/></symbol><symbol id="logo-htmlacademy" viewBox="0 0 27 34"><path d="M13.62.017L13.472 0 0 1.408v24.596L13.473 34l13.43-7.969.042-.025V1.408L13.62.017zm11.399 12.078L13.495 5.32l-.001-.104-.087.05-.088-.056v.109L1.925 12.086V3.139l11.548-1.21L25.02 3.14v8.956h-.001zM13.405 6.769l11.518 6.695-4.479 2.633-7.093-4.21-.014 1.412 5.904 3.503-.86.506-5.03-2.984-.014 1.411 3.827 2.27-.782.521-3.031-1.782-.014 1.409 1.853 1.088-1.8 1.078-11.356-6.733 11.371-6.817zm-11.48 8.318l11.411 6.773.016 1.041-7.942-4.715-.015 1.412 7.979 4.783.018 1.073-7.973-4.728-.013 1.41 8.021 4.81.046.025 8.143-4.86-.011-5.163 3.415-2.03v9.994l-11.548 6.854-11.547-6.853v-9.826z" fill="#F0C52E"/></symbol><symbol id="popular-1" viewBox="0 0 97 55"><path d="M84.131 32.639V20.003c0-1.309 1.045-2.37 2.335-2.37l8.326 1.581V11.02c0-2.355-1.708-3.43-4.202-4.265L67.403.175c1.616 1.391 1.89 2.04 1.89 4.396V49.78c0 2.356-.45 4.066-1.968 5.21l23.265-7.065c2.401-.833 4.202-4.216 4.202-6.572V33.44l-8.326 1.567c-1.29.002-2.335-1.06-2.335-2.368z" fill="#363636"/><path d="M95.129 20.979l-7.598-1.444c-1.008 0-1.824.829-1.824 1.851v9.868c0 1.023.816 1.852 1.824 1.852l7.598-1.431c1.154-.419 1.824-.829 1.824-1.852V22.83c0-1.022-.766-1.507-1.824-1.851zM67.17 4.483c0-5.08-4.232-4.459-4.232-4.459S5.832 4.738 2.838 5.145C-.156 5.552.001 9.532.001 9.532L0 45.812c0 3.743 2.599 3.753 2.599 3.753l16.477 1.403L27.212 39.3s1.109-1.828 2.505-1.828c1.397 0 2.432 1.861 2.432 1.861l9.061 13.521s18.895 1.909 22.521 1.909c3.626-.001 3.439-5.024 3.439-5.024V4.483zM12.982 37.192c-3.698 0-6.696-4.601-6.696-10.275s2.998-10.275 6.696-10.275c3.698 0 6.696 4.601 6.696 10.275s-2.998 10.275-6.696 10.275zm36.158 1.426c-4.662 0-8.44-5.239-8.44-11.701 0-6.463 3.779-11.702 8.44-11.702 4.662 0 8.442 5.239 8.442 11.702 0 6.462-3.78 11.701-8.442 11.701z" fill="#363636"/></symbol><symbol id="popular-2" viewBox="0 0 86 117"><path d="M82.821 4.011H3.33A3.188 3.188 0 00.142 7.199v46.413a3.187 3.187 0 003.188 3.189h79.492a3.188 3.188 0 003.189-3.189V7.199a3.189 3.189 0 00-3.19-3.188zM8.392 37.236h-.226a3.19 3.19 0 01-3.189-3.189v-7.283a3.188 3.188 0 013.189-3.188h.226v13.66zm61.231 15.172H13.341V8.402h56.282v44.006zM78.4 34.552a4.146 4.146 0 01-4.146-4.147 4.146 4.146 0 114.146 4.147zM54.654 0H31.497v2.758h23.157V0zm-8.046 64.861v-2.973h8.046V59.13H31.498v2.758h8.045v35.246a6.068 6.068 0 00-3.635 5.559V117h14.335v-14.307a6.062 6.062 0 00-3.636-5.557v-27.99h4.796l5.05 1.213v-6.711l-5.05 1.213h-4.795z" fill="#363636"/></symbol><symbol id="popular-3" viewBox="0 0 71 87"><path d="M53.349 1.49c0-.736-.578-1.49-1.311-1.49H9.053C8.32 0 7.672.754 7.672 1.49v3.522h45.676V1.49h.001zm.853 80.319h-9.597V71.426h-6.958v2.507H18.774c-.537-1.254-1.757-2.148-3.181-2.148H3.559C1.642 71.784 0 73.387 0 75.311v3.018c0 1.924 1.642 3.48 3.559 3.48h12.035c1.511 0 2.792-.896 3.269-2.326h18.785v2.326H28.13c-.533 0-1.01.437-1.01.972v3.172c0 .535.478 1.048 1.01 1.048h26.072c.533 0 .93-.513.93-1.048V82.78c0-.535-.397-.971-.93-.971zm6.464-69.419a7.037 7.037 0 00-6.771-5.05H7.148C3.25 7.34 0 10.449 0 14.361v46.9c0 3.912 3.25 7.121 7.148 7.121h46.747c3.898 0 7.126-3.209 7.126-7.121V50.915a23.228 23.228 0 0010.001-19.164c-.001-8.079-4.132-15.181-10.356-19.361zM12.238 62.151c-3.259 0-5.901-2.65-5.901-5.921 0-3.27 2.642-5.922 5.901-5.922s5.902 2.652 5.902 5.922c0 3.271-2.643 5.921-5.902 5.921zm5.961-32.605a1.42 1.42 0 01-1.418 1.422h-8.94a1.42 1.42 0 01-1.418-1.422v-14.16a1.42 1.42 0 011.418-1.423h8.939a1.42 1.42 0 011.418 1.423v14.16h.001zm29.563 22.312c-11.076 0-20.057-9.01-20.057-20.123 0-11.113 8.98-20.124 20.057-20.124 11.077 0 20.058 9.01 20.058 20.124 0 11.114-8.981 20.123-20.058 20.123z" fill="#363636"/><path d="M47.762 43.964c6.731 0 12.188-5.475 12.188-12.229s-5.457-12.229-12.188-12.229c-6.731 0-12.188 5.475-12.188 12.229s5.457 12.229 12.188 12.229zm-16.2-10.793a1.435 1.435 0 100-2.87 1.435 1.435 0 000 2.87zm32.401 0a1.435 1.435 0 100-2.87 1.435 1.435 0 000 2.87zM39.109 19.429a1.435 1.435 0 100-2.87 1.435 1.435 0 000 2.87zm17.306 27.483c.79 0 1.43-.643 1.43-1.436 0-.793-.64-1.436-1.43-1.436-.79 0-1.43.643-1.43 1.436 0 .793.64 1.436 1.43 1.436zM55.697 19a1.435 1.435 0 100-2.87 1.435 1.435 0 000 2.87zM39.828 47.341a1.435 1.435 0 100-2.87 1.435 1.435 0 000 2.87z" fill="#363636"/></symbol><symbol id="popular-4" viewBox="0 0 107 65"><path d="M98.967 4.074c.752 1.441 1.209 3.08 1.209 4.818v21.102c0 4.616-3.092 8.527-7.246 9.9-1.325 3.987-3.778 7.854-8.051 10.432-8.676 5.231-31.124 4.837-31.198 4.837-.078 0-22.513.395-31.189-4.837-4.216-2.545-6.708-6.347-8.042-10.279-4.418-1.209-7.756-5.251-7.756-10.053V8.893c0-1.688.427-3.282 1.139-4.693C4.17 5.109 0 6.918 0 10.434v29.983C0 50.668 11.839 64.85 53.657 64.85c41.82 0 53.657-14.182 53.657-24.433V10.434c-.001-3.684-4.576-5.494-8.347-6.36z" fill="#363636"/><path d="M20.561 38.459h65.523c5.564 0 10.074-4.513 10.074-10.077V9.935c0-5.563-4.51-10.075-10.074-10.075H20.561c-5.564 0-10.075 4.511-10.075 10.075v18.447c0 5.564 4.511 10.077 10.075 10.077zM83.695 9.468a1.57 1.57 0 110 3.139 1.57 1.57 0 010-3.139zm0 4.039a1.569 1.569 0 110 3.138 1.569 1.569 0 010-3.138zm0 4.039a1.568 1.568 0 11.001 3.137 1.568 1.568 0 01-.001-3.137zm0 3.827a1.57 1.57 0 11-.001 3.14 1.57 1.57 0 01.001-3.14zm0 4.039a1.568 1.568 0 11.001 3.137 1.568 1.568 0 01-.001-3.137zM79.656 9.468c.867 0 1.568.703 1.568 1.57a1.568 1.568 0 11-3.136 0c0-.868.703-1.57 1.568-1.57zm0 15.944a1.568 1.568 0 110 3.135 1.568 1.568 0 010-3.135zM75.619 9.468a1.57 1.57 0 11-.003 3.14 1.57 1.57 0 01.003-3.14zm0 4.039a1.57 1.57 0 11-.003 3.139 1.57 1.57 0 01.003-3.139zm0 4.039a1.569 1.569 0 11-.002 3.138 1.569 1.569 0 01.002-3.138zm0 3.827a1.568 1.568 0 110 3.138 1.568 1.568 0 010-3.138zm0 4.039a1.569 1.569 0 11-.002 3.138 1.569 1.569 0 01.002-3.138zM67.965 9.468c.867 0 1.568.703 1.568 1.57a1.568 1.568 0 11-3.136 0 1.568 1.568 0 011.568-1.57zm0 8.078a1.568 1.568 0 110 3.14 1.568 1.568 0 010-3.14zm0 3.881a1.569 1.569 0 11-.002 3.136 1.569 1.569 0 01.002-3.136zm0 3.985a1.568 1.568 0 110 3.135 1.568 1.568 0 010-3.135zM63.926 9.468a1.57 1.57 0 110 3.14 1.57 1.57 0 010-3.14zm0 8.078a1.57 1.57 0 11.001 3.139 1.57 1.57 0 01-.001-3.139zm0 7.866a1.57 1.57 0 11.001 3.139 1.57 1.57 0 01-.001-3.139zM59.888 9.468a1.57 1.57 0 010 3.139 1.568 1.568 0 01-1.568-1.569 1.567 1.567 0 011.568-1.57zm0 4.039a1.57 1.57 0 11-.001 3.135 1.57 1.57 0 01.001-3.135zm0 4.039a1.57 1.57 0 11-.001 3.14 1.57 1.57 0 01.001-3.14zm0 7.866a1.57 1.57 0 010 3.137 1.569 1.569 0 010-3.137zm-8.29-15.944a1.57 1.57 0 110 3.139 1.57 1.57 0 010-3.139zm0 4.039a1.569 1.569 0 110 3.138 1.569 1.569 0 010-3.138zm0 4.039a1.568 1.568 0 11.001 3.137 1.568 1.568 0 01-.001-3.137zm0 3.881a1.568 1.568 0 110 3.137 1.569 1.569 0 010-3.137zm0 3.985a1.568 1.568 0 11.001 3.137 1.568 1.568 0 01-.001-3.137zm-4.039-11.905a1.568 1.568 0 110 3.136 1.568 1.568 0 010-3.136zm-8.502-.212a1.57 1.57 0 11-.001 3.135 1.57 1.57 0 01.001-3.135zm0 4.038a1.57 1.57 0 11-.003 3.141 1.57 1.57 0 01.003-3.141zm-4.039-8.078a1.57 1.57 0 11-.003 3.14 1.57 1.57 0 01.003-3.14zm0 4.04a1.57 1.57 0 11-.003 3.139 1.57 1.57 0 01.003-3.139zm0 4.038a1.57 1.57 0 11-.003 3.14 1.57 1.57 0 01.003-3.14zm0 4.04a1.569 1.569 0 11-.001 3.137 1.569 1.569 0 01.001-3.137zm-4.254-8.078a1.569 1.569 0 110 3.138 1.569 1.569 0 010-3.138zm0 4.038a1.57 1.57 0 110 3.139 1.57 1.57 0 010-3.139zm0 4.04a1.57 1.57 0 11-.001 3.14 1.57 1.57 0 01.001-3.14zm0 4.039a1.568 1.568 0 11.001 3.137 1.568 1.568 0 01-.001-3.137zM26.3 9.255a1.57 1.57 0 11.002 3.136 1.57 1.57 0 01-.002-3.136zm0 4.04a1.57 1.57 0 011.571 1.568 1.57 1.57 0 01-3.14 0 1.57 1.57 0 011.569-1.568zm0 4.038a1.571 1.571 0 110 3.14 1.571 1.571 0 010-3.14zm0 4.04a1.57 1.57 0 11.003 3.135 1.57 1.57 0 01-.003-3.135zm-4.037-8.078a1.57 1.57 0 11-.001 3.135 1.57 1.57 0 01.001-3.135zm0 4.038a1.57 1.57 0 010 3.14 1.57 1.57 0 010-3.14z" fill="#363636"/></symbol><symbol id="popular-5" viewBox="0 0 56 98"><path d="M54.494 32.197h-1.515v-4.64c0-5.052-4.087-9.186-9.082-9.186H9.082C4.086 18.372 0 22.505 0 27.557v42.868c0 5.052 4.087 9.185 9.083 9.185h34.815c4.995 0 9.082-4.133 9.082-9.185V67.01h1.515a.764.764 0 00.757-.764V52.467a.765.765 0 00-.757-.766H52.98v-8.788h1.515c.832 0 1.514-.688 1.514-1.531v-7.654a1.529 1.529 0 00-1.515-1.531zm-20.412-3.109c2.926 0 5.299 2.398 5.299 5.358 0 2.96-2.373 5.358-5.299 5.358s-5.298-2.398-5.298-5.358c0-2.96 2.372-5.358 5.298-5.358zm-15.137 0c2.925 0 5.298 2.398 5.298 5.358 0 2.96-2.373 5.358-5.298 5.358-2.926 0-5.298-2.398-5.298-5.358 0-2.96 2.372-5.358 5.298-5.358zM5.297 49.397c0-2.959 2.371-5.358 5.298-5.358 2.926 0 5.298 2.399 5.298 5.358 0 2.959-2.373 5.358-5.298 5.358-2.927.001-5.298-2.399-5.298-5.358zm13.648 19.497c-2.926 0-5.298-2.398-5.298-5.358 0-2.96 2.372-5.358 5.298-5.358 2.925 0 5.298 2.398 5.298 5.358 0 2.96-2.373 5.358-5.298 5.358zm1.49-19.903c0-3.382 2.711-6.124 6.055-6.124s6.055 2.742 6.055 6.124c0 3.382-2.711 6.124-6.055 6.124-3.344-.001-6.055-2.742-6.055-6.124zm13.647 19.903c-2.926 0-5.298-2.398-5.298-5.358 0-2.96 2.372-5.358 5.298-5.358s5.299 2.398 5.299 5.358c0 2.96-2.373 5.358-5.299 5.358zm8.302-14.138c-2.927 0-5.298-2.399-5.298-5.358 0-2.959 2.371-5.358 5.298-5.358 2.926 0 5.298 2.399 5.298 5.358 0 2.958-2.372 5.358-5.298 5.358zM9.646 15.31h33.687c.843 0 1.432-.681 1.306-1.514L43.023 3.028l-.002-.002C42.771 1.362 41.189 0 39.506 0H13.474c-1.686 0-3.268 1.362-3.517 3.028L8.342 13.795c-.125.833.461 1.515 1.304 1.515zm33.687 67.361H9.646c-.843 0-1.429.683-1.304 1.516l1.615 10.767c.25 1.666 1.832 3.028 3.516 3.028h26.032c1.684 0 3.266-1.362 3.517-3.026v-.002l1.615-10.767c.128-.833-.461-1.516-1.304-1.516z" fill="#363636"/></symbol><symbol id="popular-6" viewBox="0 0 132 69"><path d="M12.052.258C6.507.745 1.838 1.85.575 2.93c-.722.616-.722.616-.232 1.156.644.72 3.713 1.645 7.247 2.237 3.998.668 12.51.693 13.724.051 1.212-.668 1.624-1.414 1.624-2.981 0-1.619-.62-2.416-2.218-2.853C19.274.154 14.942 0 12.052.258zm13.722.23c-.129.283-.258 2.108-.258 4.112 0 4.061.155 3.778-2.192 3.933l-1.03.077-.13 2.545-.129 2.544-1.186.283c-2.58.668-4 2.595-3.792 5.294.128 1.927 1.03 3.341 2.579 4.087 1.109.513 1.47.538 11.246.538 5.545 0 10.137.079 10.188.18.051.13-1.11 9.408-2.58 20.64-1.444 11.23-2.682 20.997-2.708 21.666-.051 1.617.826 2.62 2.348 2.62 1.237 0 2.012-.64 2.321-1.9.13-.514 1.496-10.334 3.018-21.822 1.522-11.463 2.863-20.869 2.94-20.869.104 0 1.084 1.413 2.193 3.136 2.94 4.626 2.399 4.317 7.635 4.317h4.359v5.63l-5.133.077c-4.72.077-5.21.127-5.881.615-1.573 1.157-1.625 1.415-1.625 10.977 0 9.534.026 9.792 1.522 11.05l.851.695h31.365l.851-.696c1.496-1.257 1.52-1.515 1.52-11.05 0-9.56-.05-9.819-1.622-10.976-.671-.488-1.162-.538-5.882-.615l-5.132-.077v-5.63h4.36c5.234 0 4.693.309 7.633-4.317 1.11-1.723 2.09-3.136 2.194-3.136.076 0 1.418 9.406 2.94 20.869 1.522 11.488 2.889 21.308 3.018 21.821.31 1.26 1.082 1.902 2.321 1.902 1.522 0 2.4-1.004 2.347-2.621-.026-.67-1.264-10.436-2.71-21.666-1.468-11.232-2.63-20.51-2.577-20.64.05-.101 4.641-.18 10.189-.18 9.775 0 10.136-.025 11.244-.538 1.548-.746 2.45-2.16 2.579-4.087.207-2.699-1.211-4.626-3.791-5.294l-1.187-.283-.127-2.544-.129-2.545-1.032-.077c-2.347-.155-2.194.128-2.194-3.933 0-2.004-.128-3.829-.257-4.112-.206-.36-.543-.488-1.367-.488-.619 0-1.238.128-1.42.309-.206.205-.309 1.465-.309 3.932 0 2.467-.103 3.727-.31 3.932-.18.18-.901.308-1.649.308-1.626 0-1.652.052-1.652 3.11v2.287H32.48v-2.287c0-3.058-.024-3.11-1.65-3.11-.748 0-1.47-.129-1.65-.308-.207-.205-.31-1.465-.31-3.932 0-2.467-.103-3.727-.31-3.932-.18-.18-.8-.309-1.418-.309-.825 0-1.16.128-1.368.488zm42.843 40.12c2.889.899 5.392 3.393 6.166 6.168.439 1.543.31 4.216-.284 5.784-.696 1.875-2.685 4.01-4.565 4.935-1.29.642-1.754.719-3.921.719s-2.631-.077-3.92-.719c-1.885-.926-3.87-3.06-4.567-4.935-.592-1.568-.722-4.24-.283-5.784.748-2.723 3.25-5.27 6.061-6.168 2.012-.642 3.3-.642 5.313 0z" fill="#363636"/><path d="M63.794 44.438c-2.036.925-3.507 3.649-3.069 5.73.774 3.677 4.824 5.553 7.996 3.702 1.985-1.158 2.991-3.547 2.451-5.783-.568-2.39-2.734-4.138-5.16-4.138-.645 0-1.625.232-2.218.489zM36.092.154c-3.92.668-4.513 1.131-4.513 3.444 0 1.825.463 2.416 2.268 2.956 1.55.462 7.172.514 10.5.128 6.86-.822 11.322-2.544 9.698-3.752-1.265-.9-4.902-1.876-9.054-2.39-2.475-.308-7.996-.54-8.9-.386zm53.392.104C83.165.848 77.62 2.339 77.62 3.444c0 1.722 7.84 3.47 15.63 3.495 5.804 0 7.196-.642 7.196-3.34 0-1.825-.619-2.622-2.373-3.085C96.423.103 92.398 0 89.484.258zm23.293.025c-1.781.231-3.019.77-3.431 1.491-.387.77-.31 2.904.154 3.572.928 1.31 1.652 1.465 7.069 1.465 3.661 0 5.801-.129 7.866-.488 3.534-.592 6.603-1.517 7.248-2.237.49-.54.49-.54-.233-1.156-1.34-1.13-5.958-2.185-11.916-2.672-3.481-.283-4.488-.283-6.757.025z" fill="#363636"/></symbol></svg>